
        <svg xmlns="http://www.w3.org/2000/svg" xmlns:xlink="http://www.w3.org/1999/xlink" version="1.1" width="3169.0140845070423" 
        height="1293.6785222277174" viewBox="0 0 3169.0140845070423 1293.6785222277174">
			<rect fill="#63181d" width="3169.0140845070423" height="1293.6785222277174"/>
			<g transform="scale(8.450704225352112) translate(10, 10)">
				<defs id="SvgjsDefs2097"></defs><g id="SvgjsG2098" featureKey="symbolFeature-0" transform="matrix(4.217432273627618,0,0,4.217432273627618,0.021087644014958953,-0.9362704795686068)" fill="#ffffff"><g xmlns="http://www.w3.org/2000/svg" display="none"><rect x="-289.333" y="-18.667" display="inline" fill="#ffffff" width="473.333" height="236"></rect></g><g xmlns="http://www.w3.org/2000/svg" display="none"><g display="inline"><g><g><polygon fill="#ffffff" points="32,15.976 15.976,32 0,16.024     "></polygon></g><g><polygon fill="#ffffff" points="23.347,15.989 15.989,23.347 8.653,16.011     "></polygon></g></g><g><g><polygon fill="#ffffff" points="0,16.024 16.024,0 32,15.976     "></polygon></g><g><polygon fill="#ffffff" points="8.653,16.011 16.011,8.653 23.347,15.989     "></polygon></g></g></g></g><g xmlns="http://www.w3.org/2000/svg"><g><g><path d="M16,23.787L8.102,16L16,8.213L23.898,16L16,23.787z M9.525,16L16,22.383L22.475,16L16,9.617L9.525,16z"></path></g><g><path d="M15.915,31.778l-15.92-15.694l16.09-15.862l15.92,15.694L15.915,31.778z M1.419,16.084l14.496,14.29l14.666-14.458     L16.085,1.626L1.419,16.084z"></path></g><g><rect x="15.5" y="0.924" width="1" height="30.152"></rect></g></g></g><g xmlns="http://www.w3.org/2000/svg" display="none"><polygon display="inline" fill="#ffffff" stroke="#ffffff" stroke-miterlimit="10" points="15.915,31.076 0.707,16.084    16.085,0.924 31.293,15.916  "></polygon><polygon display="inline" fill="#ffffff" stroke="#ffffff" stroke-miterlimit="10" points="16,23.085 8.813,16 16,8.915 23.187,16     "></polygon><line display="inline" fill="#ffffff" stroke="#ffffff" stroke-miterlimit="10" x1="16" y1="0.924" x2="16" y2="31.076"></line></g><g xmlns="http://www.w3.org/2000/svg" display="none"><polygon display="inline" fill="#ffffff" points="16,31.076 0.707,16.084 16,0.924 31.293,15.916  "></polygon><polygon display="inline" fill="#ffffff" points="16,23.085 8.813,16 16,8.915 23.187,16  "></polygon><g display="inline"><defs><polygon id="b" points="16,31.076 0.707,16.084 16,0.924 31.293,15.916    "></polygon></defs><clipPath id="a"><use xmlns:xlink="http://www.w3.org/1999/xlink" xlink:href="#b" overflow="visible"></use></clipPath><line clip-path="url(#a)" fill="#ffffff" stroke="#ffffff" stroke-miterlimit="10" x1="16" y1="-0.021" x2="16" y2="32.917"></line></g></g></g><g id="SvgjsG2099" featureKey="nameFeature-0" transform="matrix(4.0967390133110735,0,0,4.0967390133110735,145.16782304714187,-40.09409439562184)" fill="#ffffff"><path d="M26.12 26 c0 7.6844 -5.9448 13.942 -13.32 14 l-9.76 0 c-0.36 0 -0.64 -0.32 -0.64 -0.64 l0.0012109 -0.04 c-0.00078124 -0.013203 -0.0011719 -0.026797 -0.0011719 -0.04 l0 -26.68 c0 -0.32 0.28 -0.6 0.64 -0.6 s0.64 0.28 0.64 0.6 l0 26.12 l2.4 0 l0 -26.08 c0 -0.24922 0.13398 -0.46 0.33598 -0.566 c0.080392 -0.046796 0.17039 -0.073984 0.2648 -0.073984 c0.026406 -0.0016016 0.052812 -0.0016016 0.07922 0 l5.96 0 c7.4 0 13.4 6.28 13.4 14 z M24.88 26 c0 -7.04 -5.4796 -12.76 -12.16 -12.76 l-4.616 0 l15.675 18.032 c0.706 -1.608 1.1004 -3.394 1.1004 -5.272 l-0.000039062 0 z M7.3204 17.845 l14.646 16.392 c0.4512 -0.5528 0.8584 -1.1464 1.2156 -1.7744 c-0.068788 -0.030781 -0.13199 -0.076368 -0.1816 -0.14277 l-15.68 -18.038 l0 3.5624 l0 -0.000039062 z M7.3204 38.72 l5.3996 -0.000039062 c3.2416 0 6.2008 -1.3468 8.3604 -3.56 l-13.76 -15.401 l0 18.961 z M40.385999999999996 21.824 l10.734 17.136 c0.2 0.32 0.08 0.72 -0.2 0.92 c-0.12 0.08 -0.24 0.12 -0.36 0.12 c-0.24 0 -0.44 -0.12 -0.56 -0.32 l-8.6544 -13.815 l-5.3456 4.648 l0 8.7272 l-0.0012109 0.043592 c0.00078124 0.011992 0.0011719 0.024375 0.0011719 0.036758 c0 0.36 -0.32 0.68 -0.68 0.68 l-3.72 0 c-0.36 0 -0.68 -0.32 -0.6788 -0.7168 c-0.00078124 -0.013984 -0.0011719 -0.028398 -0.0011719 -0.043204 l0 -26.36 c0 -0.36 0.28 -0.64 0.64 -0.64 c0.4 0 0.68 0.28 0.68 0.64 l0 25.8 l2.44 0 l0 -25.8 c0 -0.36 0.32 -0.64 0.68 -0.64 s0.64 0.28 0.64 0.64 l0 11.006 l13.48 -11.726 c0.28 -0.24398 0.68 -0.24 0.92 0.04 s0.23602 0.68 -0.04 0.92 z M40.644 24.744 l-1.2744 -2.034 l-3.3696 2.9404 l0 3.1316 z"></path></g>
			</g>
		</svg>
	